<svg preserveAspectRatio="none" overflow="visible" style="display: block;" width="16" height="16" viewBox="0 0 16 16" fill="none" xmlns="http://www.w3.org/2000/svg">
<g id="lucide/astroid">
<g id="Vector">
<path d="M8.42623 14.5147C8.54591 14.4153 8.62706 14.2772 8.65563 14.1243C8.88552 12.7574 9.53578 11.4961 10.5159 10.5159C11.4961 9.53578 12.7574 8.88552 14.1243 8.65563C14.2772 8.62706 14.4153 8.54591 14.5147 8.42623C14.6141 8.30655 14.6686 8.15587 14.6686 8.00029C14.6686 7.84472 14.6141 7.69404 14.5147 7.57436C14.4153 7.45468 14.2772 7.37353 14.1243 7.34496C12.7574 7.11507 11.4961 6.46481 10.5159 5.48467C9.53578 4.50452 8.88552 3.24323 8.65563 1.87629C8.62706 1.72336 8.54591 1.58524 8.42623 1.48584C8.30655 1.38644 8.15587 1.33203 8.00029 1.33203C7.84472 1.33203 7.69404 1.38644 7.57436 1.48584C7.45468 1.58524 7.37353 1.72336 7.34496 1.87629C7.11507 3.24323 6.46481 4.50452 5.48467 5.48467C4.50452 6.46481 3.24323 7.11507 1.87629 7.34496C1.72336 7.37353 1.58524 7.45468 1.48584 7.57436C1.38644 7.69404 1.33203 7.84472 1.33203 8.00029C1.33203 8.15587 1.38644 8.30655 1.48584 8.42623C1.58524 8.54591 1.72336 8.62706 1.87629 8.65563C3.24323 8.88552 4.50452 9.53578 5.48467 10.5159C6.46481 11.4961 7.11507 12.7574 7.34496 14.1243C7.37353 14.2772 7.45468 14.4153 7.57436 14.5147C7.69404 14.6141 7.84472 14.6686 8.00029 14.6686C8.15587 14.6686 8.30655 14.6141 8.42623 14.5147Z" fill="#737373"/>
<path d="M8.42623 14.5147C8.54591 14.4153 8.62706 14.2772 8.65563 14.1243C8.88552 12.7574 9.53578 11.4961 10.5159 10.5159C11.4961 9.53578 12.7574 8.88552 14.1243 8.65563C14.2772 8.62706 14.4153 8.54591 14.5147 8.42623C14.6141 8.30655 14.6686 8.15587 14.6686 8.00029C14.6686 7.84472 14.6141 7.69404 14.5147 7.57436C14.4153 7.45468 14.2772 7.37353 14.1243 7.34496C12.7574 7.11507 11.4961 6.46481 10.5159 5.48467C9.53578 4.50452 8.88552 3.24323 8.65563 1.87629C8.62706 1.72336 8.54591 1.58524 8.42623 1.48584C8.30655 1.38644 8.15587 1.33203 8.00029 1.33203C7.84472 1.33203 7.69404 1.38644 7.57436 1.48584C7.45468 1.58524 7.37353 1.72336 7.34496 1.87629C7.11507 3.24323 6.46481 4.50452 5.48467 5.48467C4.50452 6.46481 3.24323 7.11507 1.87629 7.34496C1.72336 7.37353 1.58524 7.45468 1.48584 7.57436C1.38644 7.69404 1.33203 7.84472 1.33203 8.00029C1.33203 8.15587 1.38644 8.30655 1.48584 8.42623C1.58524 8.54591 1.72336 8.62706 1.87629 8.65563C3.24323 8.88552 4.50452 9.53578 5.48467 10.5159C6.46481 11.4961 7.11507 12.7574 7.34496 14.1243C7.37353 14.2772 7.45468 14.4153 7.57436 14.5147C7.69404 14.6141 7.84472 14.6686 8.00029 14.6686C8.15587 14.6686 8.30655 14.6141 8.42623 14.5147Z" fill="url(#paint0_linear_0_6)"/>
</g>
</g>
<defs>
<linearGradient id="paint0_linear_0_6" x1="1.33203" y1="18.912" x2="14.3076" y2="11.0337" gradientUnits="userSpaceOnUse">
<stop offset="0.122761" stop-color="#2563A5"/>
<stop offset="0.422921" stop-color="#2563EB"/>
<stop offset="1" stop-color="#AAC2F3"/>
</linearGradient>
</defs>
</svg>
